<svg xmlns="http://www.w3.org/2000/svg" xmlns:xlink="http://www.w3.org/1999/xlink" id="Layer_1" x="0px" y="0px" viewBox="0 0 450.8 298" style="enable-background:new 0 0 450.8 298;" xml:space="preserve"><style type="text/css">	.st0{fill:#5698C8;}	.st1{fill:#F7F9FC;}	.st2{fill:none;}	.st3{fill:#616264;enable-background:new    ;}	.st4{enable-background:new    ;}	.st5{fill:#5F2D8F;}	.st6{fill:#3FA8DF;}	.st7{fill:none;stroke:#58595B;stroke-width:2;stroke-miterlimit:10;enable-background:new    ;}</style><g>	<path class="st0" d="M177.1,23.2c-3.1,3.6-6.4,7-9.7,10.4c-2.6,2.7-5.1,5.5-7.6,8.2c-1.9,2-3.8,4-5.7,6c-4.4,4.5-8.8,9-12.6,14  c-0.7,1-1.3,2-1.7,3.2c-0.6,1.8-0.2,3.3,1.4,4.3c1.6,1,3.3,1.4,5.2,1.7c2.4,0.4,4.8,0.3,7.1,0.3c3.6-0.1,7.2,0,10.8-0.6  c2.7-0.4,5.5-0.5,8.2-0.7c2.5-0.2,5-0.6,7.5-0.7c1.9-0.1,3.8-0.5,5.8-0.2c-2.4,0.6-4.8,1.2-7.2,1.7c-4.8,1.1-9.7,2.2-14.5,3.2  c-3.6,0.8-7.1,1.6-10.7,2.3c-1.1,0.2-1.4,0.8-1.5,1.6c-0.1,1.4-0.5,2.8-0.6,4.1c-0.1,1.2-0.4,2.5-0.3,3.8c0.1,1.4-0.1,2.9-0.2,4.4  c-0.2,2.3-0.3,4.7-0.9,6.9c-0.4,1.8-0.3,3.6-0.3,5.3c0,1.4-0.3,2.7-0.5,4.1c-0.4,3.3-0.9,6.5-1,9.8c-0.1,2.3-0.6,4.6-0.6,6.9  c0,1.4,0.2,2.9-0.4,4.4c-0.4,0.8,0,1.8,0.3,2.5c1.1,2.6,2.4,5.2,3.6,7.8c1.6,3.4,3.1,6.9,4.7,10.3c1.3,2.9,2.7,5.8,4.1,8.6  c0.2,0.5,0.5,1,0.5,1.6c0.2,5.4,0.4,10.8,0,16.2c-0.1,1.9-0.2,3.8-0.4,5.7c-0.4,4.6-2.8,8.3-6.3,11.3c-4,3.4-7.9,6.7-12.1,9.8  c-0.2,0.1-0.4,0.2-0.6,0.3c0.7-1.9,1.3-3.8,2-5.7c0.7-2.2,1.3-4.4,1.8-6.6c1-4.3,1.5-8.7,1.3-13.1c-0.1-5.4-1.5-10.6-3.8-15.5  c-2.9-6.5-5.9-13.1-9.8-19c-2.3-3.4-4.6-7-8-9.5c-0.5-0.4-0.9-0.9-1.3-1.3c-1.8-2-4.2-2.7-6.6-3c-4-0.5-7.9-1.1-11.9-0.9  c-2.8,0.2-5.7,0.3-8.5,0.9c-1.7,0.3-3,1.3-3.9,2.8c-0.4,0-0.6,0.1-0.5,0.5c-1.5,2.1-3,4.1-4.5,6.2c-2.3,3.1-4.6,6.2-6.8,9.4  c-2.2,3.1-4.4,6.2-6.6,9.2c-0.3,0-0.5,0.1-0.5,0.5c-2.3,3.1-4.5,6.1-6.8,9.2c-0.4,0-0.6,0.1-0.5,0.5c-0.5,0.7-0.9,1.5-2,2  c0.8-1.8,1.5-3.5,2.2-5.1c0.2,0,0.3-0.1,0.2-0.2c0-0.4,0-0.8,0.3-1.1c0.2,0,0.3-0.1,0.2-0.2c0.1-0.3,0.2-0.6,0.2-0.9  c0.3-0.1,0.3-0.3,0.3-0.5c0.1-0.3,0.2-0.6,0.3-0.9c0.3-0.1,0.3-0.3,0.3-0.5c0.1-0.3,0.2-0.6,0.3-0.9c0.3-0.1,0.3-0.3,0.3-0.5  c0.1-0.3,0.2-0.6,0.3-0.9c0.3-0.1,0.3-0.3,0.3-0.5c0.1-0.3,0.2-0.6,0.3-0.9c0.3-0.1,0.3-0.3,0.3-0.5c0-0.4,0-0.8,0.3-1.1  c0.2,0,0.3-0.1,0.2-0.2c0-1.4,0.8-2.5,1.2-3.6c2-4.9,3.7-9.9,5.6-14.9c1-2.6,1.7-5.3,2.7-7.9c0.7-2,1-4.1,1.5-6.1  c0.1-0.6,0-0.8-0.4-1.3c-1-1-1.9-2.1-2.7-3.3c-1.6-2.5-4-2.8-6.6-2.5c-5.1,0.6-9.8,2.8-14.5,4.8c-5.7,2.3-10.8,5.6-16.2,8.5  c-0.4,0.2-0.9,0.5-1.4,0.7c-0.1-0.1-0.1-0.1-0.2-0.2c3.9-3.4,7.8-6.8,11.7-10.2c6.8-5.9,13.7-11.8,20.5-17.6c1.1-0.9,1.4-1.9,1-3.2  c-0.1-0.3-0.2-0.6-0.1-0.9c0.2-3.4-0.3-6.8-0.3-10.2c0-2.5-0.3-5-0.5-7.5c-0.1-1.1-0.9-1.7-1.7-2.3c-2-1.5-4.2-2.7-6.4-3.8  c-7.2-3.7-14.7-6.6-22.5-9.7c2-0.2,3.5,0.4,5.1,0.6c4.5,0.7,9,1.8,13.6,2.3c4.3,0.5,8.5,1.7,12.9,1.5c3.1-0.1,4.6-2.5,3.1-5.2  c-1.4-2.6-3.1-5-4.8-7.4c-4.4-6-8.6-12.1-12.9-18.3c0.2,0,0.4,0,0.5-0.1c1.8,1.6,3.5,3.2,5.3,4.8c0,0.4,0.2,0.6,0.6,0.5  c2.4,2.4,5.1,4.3,7.8,6.2c1.2,0.9,2.2,2.1,3.5,2.8c0.1,0.1,0.1,0.2,0.3,0.2c2.7,2,5.6,3.7,8.6,5.3c1.7,0.9,3.3,0.2,4.4-1.6  c0.7-1.3,1.9-2.2,2.9-3c1.5-1.1,2.5-2.4,3.3-4c1.7-3.4,2.3-7.1,3.3-10.8c1.1-4.2,1.5-8.5,2-12.9c0.6-4.7,1-9.5,1.7-14.2  c0.4-3,0.5-6.1,1.9-8.8c0.1,0,0.2,0,0.3,0c0.7,1.7,0.7,3.4,0.8,5.2c0.3,5.9-0.5,11.8-0.6,17.7c0,3.8,0,7.6,0.7,11.3  c1.1,6.1,3.7,11.7,8.6,15.8c2.7,2.3,6,4.2,9.7,4.5c2.1,0.2,4.1,1,6.3,0.7c2.2-0.2,4.2-0.7,6.1-1.8c2.5-1.3,4.9-2.9,7.2-4.5  c10.2-6.9,19.8-14.7,29.4-22.4c1.4-1.1,2.8-2.2,4.2-3.4C177,23.1,177,23.2,177.1,23.2z M90.1,96.3c0,0.9-0.2,1.9,0,2.8  c1.2,5.3,5.8,10.3,11.6,11c8,1,12.5-3.8,12.6-11c0.1-4-1.7-7.8-4.9-10.5c-1.5-1.3-3.3-2.3-5.3-2.7c-2.2-0.5-4.5,0.1-6.7,0  c-0.5,0-0.9,0.1-1.3,0.3C92,88.4,89.9,91.7,90.1,96.3z"></path>	<path class="st1" d="M140.8,201.9c0,0.2,0,0.4,0,0.6c-0.2,0-0.4,0-0.6,0c0-0.2,0.1-0.5,0.3-0.6C140.7,202,140.7,202,140.8,201.9z"></path>	<path class="st1" d="M37,128.6c0.2,0.1,0.2,0.2,0,0.3C37,128.8,37,128.7,37,128.6z"></path>	<path class="st1" d="M58.6,35.3c-0.2,0-0.4,0-0.5,0.1c0-0.2-0.6-0.3-0.2-0.5C58.2,34.6,58.6,34.8,58.6,35.3z"></path>	<path class="st1" d="M38,128.3c0.1-0.2,0.1-0.4,0.4-0.4c0,0,0.1,0.1,0.1,0.1C38.5,128.3,38.3,128.3,38,128.3L38,128.3z"></path>	<path class="st1" d="M91.5,131.1c-0.1-0.4,0.1-0.5,0.5-0.5C91.9,130.9,91.8,131.1,91.5,131.1z"></path>	<path class="st1" d="M65.9,166.1c-0.1-0.4,0.1-0.5,0.5-0.5C66.4,165.9,66.2,166.1,65.9,166.1z"></path>	<path class="st1" d="M67.5,160c0,0.3-0.1,0.4-0.3,0.5C66.8,160.1,67.2,160.1,67.5,160z"></path>	<path class="st1" d="M68,158.6c0,0.3-0.1,0.4-0.3,0.5C67.4,158.7,67.7,158.7,68,158.6z"></path>	<path class="st1" d="M68.6,157.3c0,0.3,0,0.4-0.3,0.5C67.9,157.4,68.3,157.3,68.6,157.3z"></path>	<path class="st1" d="M73.2,156.4c-0.1-0.4,0.1-0.5,0.5-0.5C73.6,156.2,73.5,156.4,73.2,156.4z"></path>	<path class="st1" d="M69.1,155.9c0,0.3,0,0.4-0.3,0.5C68.5,156,68.8,155.9,69.1,155.9z"></path>	<path class="st1" d="M69.7,154.5c0,0.3,0,0.4-0.3,0.5C69,154.6,69.4,154.5,69.7,154.5z"></path>	<path class="st1" d="M64.5,40.5c-0.4,0.1-0.6-0.1-0.6-0.5C64.2,40,64.4,40.2,64.5,40.5z"></path>	<path class="st1" d="M40.8,61.4c-0.1,0-0.2,0.1-0.2,0c-0.1,0-0.1-0.1-0.1-0.2c0.1,0,0.2-0.1,0.2,0C40.7,61.3,40.7,61.4,40.8,61.4z"></path>	<path class="st1" d="M38.1,128.4c-0.1,0.1-0.2,0.1-0.3,0.2c0,0,0-0.1-0.1-0.1C37.8,128.4,37.9,128.4,38.1,128.4  C38,128.3,38.1,128.4,38.1,128.4z"></path>	<path class="st1" d="M39.2,127.6c-0.1,0.1-0.1,0.2-0.2,0.3c0-0.1-0.1-0.3-0.1-0.4C39,127.5,39.1,127.6,39.2,127.6z"></path>	<path class="st0" d="M39.2,127.6c-0.1,0-0.2-0.1-0.3-0.1c0.1-0.3,0.3-0.3,0.5-0.3c0.1,0.1,0.1,0.1,0.2,0.2  C39.4,127.5,39.3,127.5,39.2,127.6z"></path>	<path class="st1" d="M66.9,161.4c0,0.2-0.1,0.2-0.2,0.2C66.7,161.6,66.8,161.5,66.9,161.4z"></path>	<path class="st1" d="M66.3,162.8c0,0.2-0.1,0.2-0.2,0.2C66.2,163,66.3,162.9,66.3,162.8z"></path>	<path class="st1" d="M76.1,49.7c-0.2,0.1-0.2-0.1-0.3-0.2C75.9,49.5,76,49.6,76.1,49.7z"></path>	<path class="st0" d="M140.8,201.9c-0.1,0-0.2,0-0.2,0c0.1-0.1,0.2-0.2,0.3-0.3C140.8,201.8,140.8,201.9,140.8,201.9z"></path>	<path class="st1" d="M70.2,153.1c0,0.2-0.1,0.2-0.2,0.2C70.1,153.3,70.2,153.2,70.2,153.1z"></path>	<path class="st1" d="M177.2,22.7c0.1-0.3,0.2-0.5,0.5-0.4c0.1,0,0.1,0.2,0.2,0.3c-0.1,0.1-0.3,0.1-0.4,0.2  C177.4,22.8,177.3,22.8,177.2,22.7z"></path>	<path class="st1" d="M178.9,21.4c0,0.2-0.1,0.4-0.4,0.4c0,0-0.1-0.1-0.1-0.1C178.4,21.5,178.7,21.4,178.9,21.4L178.9,21.4z"></path>	<path class="st0" d="M177.2,22.7c0.1,0,0.2,0,0.3,0.1c-0.1,0.1-0.3,0.3-0.4,0.4c-0.1-0.1-0.1-0.1-0.2-0.2  C177,22.9,177.1,22.8,177.2,22.7z"></path>	<path class="st1" d="M179.2,21.1c0,0,0.1-0.1,0.1-0.1C179.3,21.1,179.2,21.1,179.2,21.1C179.2,21.2,179.2,21.1,179.2,21.1z"></path>	<path class="st1" d="M178.9,21.4c0.1-0.1,0.2-0.2,0.3-0.3c0,0,0,0,0,0C179.1,21.2,179,21.3,178.9,21.4  C178.9,21.4,178.9,21.4,178.9,21.4z"></path></g><polyline class="st2" points="187.3,0 37.2,0 37.2,202.3 187.3,202.3 187.3,0 "></polyline><g>	<path class="st3" d="M181.4,202.6c-1.1-0.8-1.3-1.8-1.3-3.1c0-40,0-79.9,0-119.9c0-2.6,0.4-3,3-3c2.8,0,5.6,0,8.3,0  c1.3,0,2,0.6,2.1,1.8c0.1,0.7,0.2,1.5,0.2,2.2c0,10.2,0,20.4,0,30.6c0,0.5,0,1.1,0,1.8c0.5-0.3,0.8-0.4,1-0.6  c10.3-8.8,24-5.3,29.6,7.2c1.8,4.1,2.8,8.3,2.8,12.7c0,22.4,0,44.7,0,67.1c0,1.3-0.3,2.3-1.3,3.1c-3.6,0-7.2,0-10.8,0  c-1.1-0.9-1.3-2-1.3-3.4c0-21.5,0-42.9,0-64.4c0-3.3-0.7-6.3-2.7-9c-3.5-4.8-9.6-5.2-13.6-0.8c-1.2,1.3-2.2,3-2.7,4.7  c-0.7,2.4-1.1,5-1.1,7.5c-0.1,20.6-0.1,41.1,0,61.7c0,1.6-0.2,2.9-1.7,3.8C188.4,202.6,184.9,202.6,181.4,202.6z"></path>	<path class="st3" d="M251.9,202.6c-1.5-0.5-3-0.8-4.4-1.4c-5.9-2.3-9.4-6.8-11.6-12.4c-1.6-4.1-2.3-8.4-2.3-12.8  c0-3-0.2-6.1,0.1-9.1c0.9-10.1,7.2-19.9,18.9-22.7c4.2-1,8.4-0.5,12.7-0.6c3.2-0.1,3.2,0,3.2-3.2c0-4.2,0.2-8.4-0.9-12.5  c-1.1-4.2-4.4-7.8-10-7.8c-5.2,0-9.3,2-12.9,5.5c-1.7,1.7-2.7,1.5-4-0.6c-1.1-1.8-2.2-3.5-3.2-5.3c-1.2-2.1-1-4.1,0.7-5.7  c4.2-4.1,9.1-7.1,15-7.9c7-1,13.8-0.9,19.8,3.7c4.2,3.2,6.6,7.7,7.7,12.7c0.8,3.6,1.4,7.3,1.4,11c0.1,21.2,0.1,42.3,0,63.5  c0,0.7-0.1,1.5-0.3,2.2c-0.3,0.9-1,1.5-2.1,1.4c-1.5-0.1-3-0.1-4.4,0c-2.4,0.2-3.4-0.7-3.7-3.7c-0.3-2.4-0.3-4.8-0.4-7.4  c-0.3,0.4-0.5,0.6-0.6,0.9c-2.1,6.3-6.3,10.4-12.8,11.9c-0.2,0-0.3,0.2-0.4,0.3C255.4,202.6,253.6,202.6,251.9,202.6z M268.2,156.7  c-3,0-6-0.2-8.9,0c-4.7,0.4-8.4,2.6-10.5,7c-1.9,3.9-1.8,8-1.5,12.1c0.3,3.2,1.1,6.1,3.1,8.7c3,3.8,7.9,4.7,11.6,2  c2-1.4,3.3-3.5,4.2-5.7c1.3-3.3,2-6.8,2.1-10.3C268.2,166,268.2,161.4,268.2,156.7z"></path>	<path class="st3" d="M369.9,202.6c-1.1-0.9-1.1-2.1-1.1-3.4c0-24.4,0-48.8,0-73.2c0-0.5,0-1,0-1.5c0-0.8-0.3-1.1-1.1-1  c-1.7,0-3.4,0-5.1,0c-1.7,0-2.5-0.8-2.5-2.6c0-3,0-6.1,0-9.1c0-1.7,0.8-2.5,2.6-2.5c1.5,0,3-0.1,4.4,0c1.5,0.1,1.8-0.5,1.8-1.8  c0-3.6-0.1-7.3,0.1-10.9c0.2-4,1-7.9,2.7-11.5c2.5-5.2,6.5-8.2,12.2-9c3-0.4,6-0.3,9-0.4c1.7,0,2.3,0.8,2.3,2.5c0,2.8,0,5.6,0,8.5  c0,1.7-0.7,2.4-2.4,2.5c-0.9,0.1-1.7,0.2-2.6,0.2c-3.6,0.3-5.8,2-6.8,5.5c-0.4,1.4-0.7,2.9-0.8,4.3c-0.2,2.9-0.2,5.7-0.3,8.6  c0,1.1,0.3,1.6,1.5,1.5c3.1-0.1,6.2,0,9.3,0c1.7,0,2.4,0.7,2.4,2.4c0,3.1,0,6.2,0,9.3c0,1.8-0.7,2.5-2.6,2.5c-3.1,0-6.2,0-9.3,0  c-1,0-1.5,0.3-1.4,1.3c0,0.5,0,1,0,1.5c0,24.3,0,48.6,0,72.9c0,1.3,0,2.5-1.1,3.4C377.3,202.6,373.6,202.6,369.9,202.6z"></path>	<path class="st3" d="M294.4,202.6c-0.8-0.7-1.3-1.5-1.3-2.7c0-22.2-0.2-44.5,0.2-66.7c0.1-9,3.9-16.8,11.7-22  c3.6-2.4,7.7-3.6,12-3.6c2.4,0,4.9,0.1,7.3,0.3c2.4,0.2,3.1,1.2,3.1,3.6c0,2.6,0,5.3,0,7.9c0,2-1,3-3,3c-1.8,0-3.7,0-5.5,0  c-5.3,0.1-8.5,3.1-10.6,7.6c-1.4,3.1-1.7,6.5-1.7,9.9c0,19.5,0,38.9,0,58.4c0,1.9-0.4,3.4-2.2,4.4  C301,202.6,297.7,202.6,294.4,202.6z"></path>	<path class="st3" d="M411.8,202.6c-1.3-0.7-1.6-1.8-1.6-3.2c0-29,0-57.9,0-86.9c0-2.6,0.6-3.2,3.2-3.2c2.2,0,4.4,0.1,6.5,0  c1.8-0.1,3.2,0.3,4.1,1.9c0,30.5,0,61,0,91.5C419.9,202.6,415.9,202.6,411.8,202.6z"></path>	<path class="st3" d="M333.2,202.6c-1.3-0.7-1.6-1.8-1.6-3.2c0-29,0-57.9,0-86.9c0-2.6,0.6-3.2,3.2-3.2c2.6,0,5.2,0,7.8,0  c1.6,0,2.7,1,2.7,2.6c0,0.3,0,0.6,0,0.8c0,28.7,0,57.5,0,86.2c0,1.6-0.3,2.9-1.9,3.6C340.1,202.6,336.6,202.6,333.2,202.6z"></path>	<path class="st3" d="M141.4,201.7c2.1-4.5,4.2-8.8,6-13.3c2.5-6.1,4.1-12.5,4.3-19.2c0.2-4.9-1-9.6-3.2-14  c-1.3-2.6-2.7-5.1-4.1-7.6c-4.7-8.2-7.3-16.9-8.6-26.2c-1.6-11.5-0.3-22.4,4.5-33c2.2-4.9,5.1-9.4,8.6-13.5  c0.7-0.9,1.5-1.3,2.7-1.3c5.6,0.1,11.2,0,17.1,0c-0.4,0.6-0.7,1-1,1.3c-5,6-9.5,12.4-12.7,19.6c-4.8,10.8-4.7,21.7-1.6,32.9  c2.6,9.3,6.3,18.1,10.5,26.7c3.2,6.5,3.8,13.3,3,20.4c-1,9.2-4,17.8-8.1,26c-0.5,1.1-1.2,1.6-2.5,1.6c-4.6-0.2-9.1-0.2-13.7-0.3  C142.1,201.9,141.6,201.8,141.4,201.7z"></path>	<path class="st3" d="M338.5,73.8c3.9,0.1,7.4,3.6,7.3,7.4c-0.1,3.9-3.6,7.4-7.4,7.3c-3.9-0.1-7.4-3.6-7.3-7.4  C331.2,77.2,334.7,73.7,338.5,73.8z"></path>	<path class="st3" d="M423,81.1c0,3.9-3.5,7.4-7.4,7.4c-3.9,0-7.4-3.5-7.4-7.4c0-3.9,3.5-7.4,7.4-7.4C419.5,73.7,423,77.2,423,81.1z  "></path></g><g class="st4">	<path class="st5" d="M75.4,239.5c0,2.5-0.5,4.2-1.4,5.1c-1,0.9-2.7,1.3-5.2,1.3H50.2c-2.5,0-4.3-0.4-5.2-1.3  c-1-0.9-1.4-2.6-1.4-5.1v-14.2c0-2.5,0.5-4.2,1.4-5.1c1-0.9,2.7-1.3,5.2-1.3h18.6c2.7,0,4.5,0.5,5.3,1.4c0.9,0.9,1.3,2.7,1.3,5.3  l-6.1,1.1v-3H49.8v17.1h19.6v-6H59.1v-4.6h16.3V239.5z"></path>	<path class="st5" d="M112.8,240.7c0,2.1-0.4,3.5-1.3,4.2c-0.9,0.7-2.4,1-4.5,1H92.4c-2.2,0-3.7-0.3-4.5-1c-0.8-0.7-1.3-2.1-1.3-4.2  v-16.8h5.4v17.9h15.3v-17.9h5.4V240.7z"></path>	<path class="st5" d="M128,245.9h-5.4v-22.1h5.4V245.9z"></path>	<path class="st5" d="M164.6,223.8l-12.8,22.1h-3.7l-13.4-22.1h6.1l9.3,16l8.8-16H164.6z"></path>	<path class="st5" d="M194.7,245.9h-23.9v-22.1h23.7v3.9h-18.3v4.8h10.6v3.8h-10.6v5.4h18.5V245.9z"></path>	<path class="st5" d="M253.8,239.5c0,2.5-0.5,4.2-1.5,5.1c-1,0.9-2.7,1.3-5.3,1.3h-16.6c-2.7,0-4.6-0.5-5.4-1.5  c-0.9-1-1.3-2.9-1.3-5.6l5.5-1.1v3.2h19v-6.2h-16.8c-2.5,0-4.3-0.4-5.2-1.3c-1-0.9-1.4-2.6-1.4-5.1v-3c0-2.5,0.5-4.2,1.4-5.1  c1-0.9,2.7-1.3,5.2-1.3h15.3c2.6,0,4.3,0.4,5.3,1.3c0.9,0.9,1.4,2.6,1.4,5.1l-5.5,1.3v-3.1h-17.6v5.8h16.8c2.5,0,4.3,0.4,5.3,1.3  c1,0.9,1.5,2.6,1.5,5.1V239.5z"></path>	<path class="st5" d="M292.4,245.9h-5.4v-9.3h-16.8v9.3h-5.4v-22.1h5.4v8.4h16.8v-8.4h5.4V245.9z"></path>	<path class="st5" d="M330.5,245.9h-6l-2.8-4.9h-14.6l-2.8,4.9h-5.4l13.1-22.1h5.2L330.5,245.9z M319.5,237l-5.2-9.2l-5,9.2H319.5z"></path>	<path class="st5" d="M363.3,245.9h-7.7l-9.2-8.3h-5.1v8.3H336v-22.1h19.9c3.4,0,5.2,1.4,5.2,4.3v5.2c0,2.2-0.9,3.5-2.8,4  c-0.6,0.2-2.4,0.3-5.4,0.3L363.3,245.9z M356,232v-2.6c0-1.2-0.8-1.8-2.5-1.8h-12.3v6.1h12.3C355.2,233.8,356,233.2,356,232z"></path>	<path class="st5" d="M375.2,245.9h-5.4v-22.1h5.4V245.9z"></path>	<path class="st5" d="M408.5,227.8h-18v5.7h9.7v4.1h-9.7v8.2H385v-22.1h23.4V227.8z"></path>	<path class="st5" d="M419.1,245.9h-5.4v-22.1h5.4V245.9z"></path></g><g class="st4">	<path class="st6" d="M70.7,287.3H67l-17.2-14.5c-0.7-0.6-1.4-1.2-2-1.9c0.2,1.5,0.2,2.7,0.2,3.6v12.8h-4.9v-23.4h3.7l16.5,13.8  c1.2,1,2.1,1.8,2.7,2.5c-0.2-2.2-0.2-3.5-0.2-4v-12.3h4.9V287.3z"></path>	<path class="st6" d="M101.8,287.3H81v-19.2h20.6v3.4H85.7v4.2h9.3v3.3h-9.3v4.7h16.1V287.3z"></path>	<path class="st6" d="M131.3,282.7c0,1.8-0.4,3-1.1,3.6c-0.7,0.6-2.1,0.9-3.9,0.9h-12.7c-1.9,0-3.2-0.3-3.9-0.9  c-0.7-0.6-1.1-1.8-1.1-3.6v-14.7h4.7v15.6h13.4v-15.6h4.7V282.7z"></path>	<path class="st6" d="M163.7,287.3H157l-8-7.3h-4.4v7.3h-4.6v-19.2h17.3c3,0,4.5,1.2,4.5,3.7v4.5c0,1.9-0.8,3-2.4,3.5  c-0.5,0.2-2.1,0.2-4.7,0.2L163.7,287.3z M157.3,275.2v-2.2c0-1-0.7-1.5-2.1-1.5h-10.7v5.3h10.7  C156.6,276.7,157.3,276.2,157.3,275.2z"></path>	<path class="st6" d="M193.8,282.7c0,1.8-0.4,3-1.1,3.6c-0.7,0.6-2,0.9-3.9,0.9H174c-1.9,0-3.2-0.3-3.9-0.9  c-0.7-0.6-1.1-1.8-1.1-3.7v-10.1c0-1.8,0.4-3.1,1.1-3.7c0.7-0.6,2-0.9,3.9-0.9h14.9c1.9,0,3.2,0.3,3.9,0.9c0.7,0.6,1.1,1.8,1.1,3.7  V282.7z M189.1,283.6v-12h-15.5v12H189.1z"></path>	<path class="st6" d="M229.1,281.7c0,2.2-0.4,3.6-1.3,4.4c-0.8,0.8-2.4,1.1-4.6,1.1h-14.5c-2.4,0-4-0.4-4.7-1.3  c-0.8-0.8-1.1-2.5-1.1-4.9l4.8-1v2.8h16.6v-5.4h-14.6c-2.2,0-3.7-0.4-4.6-1.1c-0.8-0.8-1.2-2.2-1.2-4.4v-2.6c0-2.2,0.4-3.6,1.2-4.4  c0.8-0.8,2.4-1.1,4.6-1.1h13.3c2.2,0,3.8,0.4,4.6,1.2c0.8,0.8,1.2,2.3,1.2,4.5l-4.8,1.1v-2.7h-15.4v5h14.6c2.2,0,3.7,0.4,4.6,1.1  c0.8,0.8,1.3,2.2,1.3,4.4V281.7z"></path>	<path class="st6" d="M261.4,282.7c0,1.8-0.4,3-1.1,3.6c-0.7,0.6-2.1,0.9-3.9,0.9h-12.7c-1.9,0-3.2-0.3-3.9-0.9  c-0.7-0.6-1.1-1.8-1.1-3.6v-14.7h4.7v15.6h13.4v-15.6h4.7V282.7z"></path>	<path class="st6" d="M293.8,287.3H287l-8-7.3h-4.4v7.3h-4.6v-19.2h17.3c3,0,4.5,1.2,4.5,3.7v4.5c0,1.9-0.8,3-2.4,3.5  c-0.5,0.2-2.1,0.2-4.7,0.2L293.8,287.3z M287.4,275.2v-2.2c0-1-0.7-1.5-2.1-1.5h-10.7v5.3h10.7  C286.7,276.7,287.4,276.2,287.4,275.2z"></path>	<path class="st6" d="M322.9,282.7c0,1.8-0.4,3-1.1,3.6c-0.7,0.6-2,0.9-3.9,0.9H304c-1.9,0-3.2-0.3-3.9-0.9  c-0.7-0.6-1.1-1.8-1.1-3.6v-10.1c0-1.8,0.4-3,1.1-3.6c0.7-0.6,2-0.9,3.9-0.9h13.9c2,0,3.3,0.3,4,1c0.7,0.6,1,1.9,1,3.9l-4.6,0.8v-2  h-14.6v12h14.6v-4.1h-7.6v-3.4h12.2V282.7z"></path>	<path class="st6" d="M351.8,287.3h-20.9v-19.2h20.6v3.4h-15.9v4.2h9.3v3.3h-9.3v4.7h16.1V287.3z"></path>	<path class="st6" d="M382.9,282.7c0,1.8-0.4,3-1.1,3.6c-0.7,0.6-2,0.9-3.9,0.9h-14.9c-1.9,0-3.2-0.3-3.9-0.9  c-0.7-0.6-1.1-1.8-1.1-3.7v-10.1c0-1.8,0.4-3.1,1.1-3.7c0.7-0.6,2-0.9,3.9-0.9h14.9c1.9,0,3.2,0.3,3.9,0.9c0.7,0.6,1.1,1.8,1.1,3.7  V282.7z M378.3,283.6v-12h-15.5v12H378.3z"></path>	<path class="st6" d="M414.8,287.3h-3.2l-16.3-12.9v12.9H391v-19.2h3.2l16.3,12.8v-12.8h4.2V287.3z"></path></g><line class="st7" x1="43.5" y1="257.9" x2="419.1" y2="257.9"></line></svg>