<svg xmlns="http://www.w3.org/2000/svg" xmlns:xlink="http://www.w3.org/1999/xlink" id="Layer_1" x="0px" y="0px" viewBox="0 0 450.8 298" style="enable-background:new 0 0 450.8 298;" xml:space="preserve"><style type="text/css">	.st0{fill:#FFFFFF;enable-background:new    ;}	.st1{enable-background:new    ;}	.st2{fill:#FFFFFF;}	.st3{fill:#5296C7;enable-background:new    ;}</style><g>	<g>					<image style="overflow:visible;enable-background:new    ;" width="540" height="728" xlink:href="66C66F22.png" transform="matrix(0.2779 0 0 0.2779 31.9969 -6.437183e-05)">		</image>		<g>			<path class="st0" d="M176.2,202.6c-1.1-0.8-1.3-1.8-1.3-3.1c0-40,0-79.9,0-119.9c0-2.6,0.4-3,3-3c2.8,0,5.6,0,8.3,0    c1.3,0,2,0.6,2.1,1.8c0.1,0.7,0.2,1.5,0.2,2.2c0,10.2,0,20.4,0,30.6c0,0.5,0,1.1,0,1.8c0.5-0.3,0.8-0.4,1-0.6    c10.3-8.8,24-5.3,29.6,7.2c1.8,4.1,2.8,8.3,2.8,12.7c0,22.4,0,44.7,0,67.1c0,1.3-0.3,2.3-1.3,3.1c-3.6,0-7.2,0-10.8,0    c-1.1-0.9-1.3-2-1.3-3.4c0-21.5,0-42.9,0-64.4c0-3.3-0.7-6.3-2.7-9c-3.5-4.8-9.6-5.2-13.6-0.8c-1.2,1.3-2.2,3-2.7,4.7    c-0.7,2.4-1.1,5-1.1,7.5c-0.1,20.6-0.1,41.1,0,61.7c0,1.6-0.2,2.9-1.7,3.8C183.2,202.6,179.7,202.6,176.2,202.6z"></path>			<path class="st0" d="M246.7,202.6c-1.5-0.5-3-0.8-4.4-1.4c-5.9-2.3-9.4-6.8-11.6-12.4c-1.6-4.1-2.3-8.4-2.3-12.8    c0-3-0.2-6.1,0.1-9.1c0.9-10.1,7.2-19.9,18.9-22.7c4.2-1,8.4-0.5,12.7-0.6c3.2-0.1,3.2,0,3.2-3.2c0-4.2,0.2-8.4-0.9-12.5    c-1.1-4.2-4.4-7.8-10-7.8c-5.2,0-9.3,2-12.9,5.5c-1.7,1.7-2.7,1.5-4-0.6c-1.1-1.8-2.2-3.5-3.2-5.3c-1.2-2.1-1-4.1,0.7-5.7    c4.2-4.1,9.1-7.1,15-7.9c7-1,13.8-0.9,19.8,3.7c4.2,3.2,6.6,7.7,7.7,12.7c0.8,3.6,1.4,7.3,1.4,11c0.1,21.2,0.1,42.3,0,63.5    c0,0.7-0.1,1.5-0.3,2.2c-0.3,0.9-1,1.5-2.1,1.4c-1.5-0.1-3-0.1-4.4,0c-2.4,0.2-3.4-0.7-3.7-3.7c-0.3-2.4-0.3-4.8-0.4-7.4    c-0.3,0.4-0.5,0.6-0.6,0.9c-2.1,6.3-6.3,10.4-12.8,11.9c-0.2,0-0.3,0.2-0.4,0.3C250.2,202.6,248.4,202.6,246.7,202.6z M263,156.7    c-3,0-6-0.2-8.9,0c-4.7,0.4-8.4,2.6-10.5,7c-1.9,3.9-1.8,8-1.5,12.1c0.3,3.2,1.1,6.1,3.1,8.7c3,3.8,7.9,4.7,11.6,2    c2-1.4,3.3-3.5,4.2-5.7c1.3-3.3,2-6.8,2.1-10.3C263,166,263,161.4,263,156.7z"></path>			<path class="st0" d="M364.7,202.6c-1.1-0.9-1.1-2.1-1.1-3.4c0-24.4,0-48.8,0-73.2c0-0.5,0-1,0-1.5c0-0.8-0.3-1.1-1.1-1    c-1.7,0-3.4,0-5.1,0c-1.7,0-2.5-0.8-2.5-2.6c0-3,0-6.1,0-9.1c0-1.7,0.8-2.5,2.6-2.5c1.5,0,3-0.1,4.4,0c1.5,0.1,1.8-0.5,1.8-1.8    c0-3.6-0.1-7.3,0.1-10.9c0.2-4,1-7.9,2.7-11.5c2.5-5.2,6.5-8.2,12.2-9c3-0.4,6-0.3,9-0.4c1.7,0,2.3,0.8,2.3,2.5    c0,2.8,0,5.6,0,8.5c0,1.7-0.7,2.4-2.4,2.5c-0.9,0.1-1.7,0.2-2.6,0.2c-3.6,0.3-5.8,2-6.8,5.5c-0.4,1.4-0.7,2.9-0.8,4.3    c-0.2,2.9-0.2,5.7-0.3,8.6c0,1.1,0.3,1.6,1.5,1.5c3.1-0.1,6.2,0,9.3,0c1.7,0,2.4,0.7,2.4,2.4c0,3.1,0,6.2,0,9.3    c0,1.8-0.7,2.5-2.6,2.5c-3.1,0-6.2,0-9.3,0c-1,0-1.5,0.3-1.4,1.3c0,0.5,0,1,0,1.5c0,24.3,0,48.6,0,72.9c0,1.3,0,2.5-1.1,3.4    C372.1,202.6,368.4,202.6,364.7,202.6z"></path>			<path class="st0" d="M289.1,202.6c-0.8-0.7-1.3-1.5-1.3-2.7c0-22.2-0.2-44.5,0.2-66.7c0.1-9,3.9-16.8,11.7-22    c3.6-2.4,7.7-3.6,12-3.6c2.4,0,4.9,0.1,7.3,0.3c2.4,0.2,3.1,1.2,3.1,3.6c0,2.6,0,5.3,0,7.9c0,2-1,3-3,3c-1.8,0-3.7,0-5.5,0    c-5.3,0.1-8.5,3.1-10.6,7.6c-1.4,3.1-1.7,6.5-1.7,9.9c0,19.5,0,38.9,0,58.4c0,1.9-0.4,3.4-2.2,4.4    C295.8,202.6,292.5,202.6,289.1,202.6z"></path>			<path class="st0" d="M406.6,202.6c-1.3-0.7-1.6-1.8-1.6-3.2c0-29,0-57.9,0-86.9c0-2.6,0.6-3.2,3.2-3.2c2.2,0,4.4,0.1,6.5,0    c1.8-0.1,3.2,0.3,4.1,1.9c0,30.5,0,61,0,91.5C414.7,202.6,410.6,202.6,406.6,202.6z"></path>			<path class="st0" d="M328,202.6c-1.3-0.7-1.6-1.8-1.6-3.2c0-29,0-57.9,0-86.9c0-2.6,0.6-3.2,3.2-3.2c2.6,0,5.2,0,7.8,0    c1.6,0,2.7,1,2.7,2.6c0,0.3,0,0.6,0,0.8c0,28.7,0,57.5,0,86.2c0,1.6-0.3,2.9-1.9,3.6C334.9,202.6,331.4,202.6,328,202.6z"></path>			<path class="st0" d="M136.2,201.7c2.1-4.5,4.2-8.8,6-13.3c2.5-6.1,4.1-12.5,4.3-19.2c0.2-4.9-1-9.6-3.2-14    c-1.3-2.6-2.7-5.1-4.1-7.6c-4.7-8.2-7.3-16.9-8.6-26.2c-1.6-11.5-0.3-22.4,4.5-33c2.2-4.9,5.1-9.4,8.6-13.5    c0.7-0.9,1.5-1.3,2.7-1.3c5.6,0.1,11.2,0,17.1,0c-0.4,0.6-0.7,1-1,1.3c-5,6-9.5,12.4-12.7,19.6c-4.8,10.8-4.7,21.7-1.6,32.9    c2.6,9.3,6.3,18.1,10.5,26.7c3.2,6.5,3.8,13.3,3,20.4c-1,9.2-4,17.8-8.1,26c-0.5,1.1-1.2,1.6-2.5,1.6c-4.6-0.2-9.1-0.2-13.7-0.3    C136.9,201.9,136.4,201.8,136.2,201.7z"></path>			<path class="st0" d="M333.3,73.8c3.9,0.1,7.4,3.6,7.3,7.4c-0.1,3.9-3.6,7.4-7.4,7.3c-3.9-0.1-7.4-3.6-7.3-7.4    C326,77.2,329.5,73.7,333.3,73.8z"></path>			<path class="st0" d="M417.8,81.1c0,3.9-3.5,7.4-7.4,7.4c-3.9,0-7.4-3.5-7.4-7.4c0-3.9,3.5-7.4,7.4-7.4    C414.3,73.7,417.8,77.2,417.8,81.1z"></path>		</g>	</g>	<g class="st1">		<path class="st2" d="M70.2,239.5c0,2.5-0.5,4.2-1.4,5.1c-1,0.9-2.7,1.3-5.2,1.3H45c-2.5,0-4.3-0.4-5.2-1.3c-1-0.9-1.4-2.6-1.4-5.1   v-14.2c0-2.5,0.5-4.2,1.4-5.1c1-0.9,2.7-1.3,5.2-1.3h18.6c2.7,0,4.5,0.5,5.3,1.4c0.9,0.9,1.3,2.7,1.3,5.3l-6.1,1.1v-3H44.6v17.1   h19.6v-6H53.9v-4.6h16.3V239.5z"></path>		<path class="st2" d="M107.6,240.7c0,2.1-0.4,3.5-1.3,4.2c-0.9,0.7-2.4,1-4.5,1H87.2c-2.2,0-3.7-0.3-4.5-1   c-0.8-0.7-1.3-2.1-1.3-4.2v-16.8h5.4v17.9h15.3v-17.9h5.4V240.7z"></path>		<path class="st2" d="M122.8,245.9h-5.4v-22.1h5.4V245.9z"></path>		<path class="st2" d="M159.4,223.8l-12.8,22.1h-3.7l-13.4-22.1h6.1l9.3,16l8.8-16H159.4z"></path>		<path class="st2" d="M189.5,245.9h-23.9v-22.1h23.7v3.9H171v4.8h10.6v3.8H171v5.4h18.5V245.9z"></path>		<path class="st2" d="M248.6,239.5c0,2.5-0.5,4.2-1.5,5.1c-1,0.9-2.7,1.3-5.3,1.3h-16.6c-2.7,0-4.6-0.5-5.4-1.5   c-0.9-1-1.3-2.9-1.3-5.6l5.5-1.1v3.2h19v-6.2h-16.8c-2.5,0-4.3-0.4-5.2-1.3c-1-0.9-1.4-2.6-1.4-5.1v-3c0-2.5,0.5-4.2,1.4-5.1   c1-0.9,2.7-1.3,5.2-1.3h15.3c2.6,0,4.3,0.4,5.3,1.3c0.9,0.9,1.4,2.6,1.4,5.1l-5.5,1.3v-3.1h-17.6v5.8h16.8c2.5,0,4.3,0.4,5.3,1.3   c1,0.9,1.5,2.6,1.5,5.1V239.5z"></path>		<path class="st2" d="M287.2,245.9h-5.4v-9.3h-16.8v9.3h-5.4v-22.1h5.4v8.4h16.8v-8.4h5.4V245.9z"></path>		<path class="st2" d="M325.3,245.9h-6l-2.8-4.9h-14.6l-2.8,4.9h-5.4l13.1-22.1h5.2L325.3,245.9z M314.3,237l-5.2-9.2l-5,9.2H314.3z   "></path>		<path class="st2" d="M358.1,245.9h-7.7l-9.2-8.3h-5.1v8.3h-5.3v-22.1h19.9c3.4,0,5.2,1.4,5.2,4.3v5.2c0,2.2-0.9,3.5-2.8,4   c-0.6,0.2-2.4,0.3-5.4,0.3L358.1,245.9z M350.8,232v-2.6c0-1.2-0.8-1.8-2.5-1.8h-12.3v6.1h12.3C350,233.8,350.8,233.2,350.8,232z"></path>		<path class="st2" d="M370,245.9h-5.4v-22.1h5.4V245.9z"></path>		<path class="st2" d="M403.2,227.8h-18v5.7h9.7v4.1h-9.7v8.2h-5.4v-22.1h23.4V227.8z"></path>		<path class="st2" d="M413.9,245.9h-5.4v-22.1h5.4V245.9z"></path>	</g>	<g class="st1">		<path class="st2" d="M65.5,287.3h-3.7l-17.2-14.5c-0.7-0.6-1.4-1.2-2-1.9c0.2,1.5,0.2,2.7,0.2,3.6v12.8h-4.9v-23.4h3.7l16.5,13.8   c1.2,1,2.1,1.8,2.7,2.5c-0.2-2.2-0.2-3.5-0.2-4v-12.3h4.9V287.3z"></path>		<path class="st2" d="M96.6,287.3H75.7v-19.2h20.6v3.4H80.5v4.2h9.3v3.3h-9.3v4.7h16.1V287.3z"></path>		<path class="st2" d="M126.1,282.7c0,1.8-0.4,3-1.1,3.6c-0.7,0.6-2.1,0.9-3.9,0.9h-12.7c-1.9,0-3.2-0.3-3.9-0.9   c-0.7-0.6-1.1-1.8-1.1-3.6v-14.7h4.7v15.6h13.4v-15.6h4.7V282.7z"></path>		<path class="st2" d="M158.5,287.3h-6.7l-8-7.3h-4.4v7.3h-4.6v-19.2H152c3,0,4.5,1.2,4.5,3.7v4.5c0,1.9-0.8,3-2.4,3.5   c-0.5,0.2-2.1,0.2-4.7,0.2L158.5,287.3z M152.1,275.2v-2.2c0-1-0.7-1.5-2.1-1.5h-10.7v5.3H150   C151.4,276.7,152.1,276.2,152.1,275.2z"></path>		<path class="st2" d="M188.6,282.7c0,1.8-0.4,3-1.1,3.6c-0.7,0.6-2,0.9-3.9,0.9h-14.9c-1.9,0-3.2-0.3-3.9-0.9   c-0.7-0.6-1.1-1.8-1.1-3.7v-10.1c0-1.8,0.4-3.1,1.1-3.7c0.7-0.6,2-0.9,3.9-0.9h14.9c1.9,0,3.2,0.3,3.9,0.9   c0.7,0.6,1.1,1.8,1.1,3.7V282.7z M183.9,283.6v-12h-15.5v12H183.9z"></path>		<path class="st2" d="M223.8,281.7c0,2.2-0.4,3.6-1.3,4.4c-0.8,0.8-2.4,1.1-4.6,1.1h-14.5c-2.4,0-4-0.4-4.7-1.3   c-0.8-0.8-1.1-2.5-1.1-4.9l4.8-1v2.8H219v-5.4h-14.6c-2.2,0-3.7-0.4-4.6-1.1c-0.8-0.8-1.2-2.2-1.2-4.4v-2.6c0-2.2,0.4-3.6,1.2-4.4   c0.8-0.8,2.4-1.1,4.6-1.1h13.3c2.2,0,3.8,0.4,4.6,1.2c0.8,0.8,1.2,2.3,1.2,4.5l-4.8,1.1v-2.7h-15.4v5H218c2.2,0,3.7,0.4,4.6,1.1   c0.8,0.8,1.3,2.2,1.3,4.4V281.7z"></path>		<path class="st2" d="M256.2,282.7c0,1.8-0.4,3-1.1,3.6c-0.7,0.6-2.1,0.9-3.9,0.9h-12.7c-1.9,0-3.2-0.3-3.9-0.9   c-0.7-0.6-1.1-1.8-1.1-3.6v-14.7h4.7v15.6h13.4v-15.6h4.7V282.7z"></path>		<path class="st2" d="M288.5,287.3h-6.7l-8-7.3h-4.4v7.3h-4.6v-19.2H282c3,0,4.5,1.2,4.5,3.7v4.5c0,1.9-0.8,3-2.4,3.5   c-0.5,0.2-2.1,0.2-4.7,0.2L288.5,287.3z M282.2,275.2v-2.2c0-1-0.7-1.5-2.1-1.5h-10.7v5.3H280   C281.5,276.7,282.2,276.2,282.2,275.2z"></path>		<path class="st2" d="M317.7,282.7c0,1.8-0.4,3-1.1,3.6c-0.7,0.6-2,0.9-3.9,0.9h-13.9c-1.9,0-3.2-0.3-3.9-0.9   c-0.7-0.6-1.1-1.8-1.1-3.6v-10.1c0-1.8,0.4-3,1.1-3.6c0.7-0.6,2-0.9,3.9-0.9h13.9c2,0,3.3,0.3,4,1c0.7,0.6,1,1.9,1,3.9l-4.6,0.8   v-2h-14.6v12h14.6v-4.1h-7.6v-3.4h12.2V282.7z"></path>		<path class="st2" d="M346.6,287.3h-20.9v-19.2h20.6v3.4h-15.9v4.2h9.3v3.3h-9.3v4.7h16.1V287.3z"></path>		<path class="st2" d="M377.7,282.7c0,1.8-0.4,3-1.1,3.6c-0.7,0.6-2,0.9-3.9,0.9h-14.9c-1.9,0-3.2-0.3-3.9-0.9   c-0.7-0.6-1.1-1.8-1.1-3.7v-10.1c0-1.8,0.4-3.1,1.1-3.7c0.7-0.6,2-0.9,3.9-0.9h14.9c1.9,0,3.2,0.3,3.9,0.9   c0.7,0.6,1.1,1.8,1.1,3.7V282.7z M373,283.6v-12h-15.5v12H373z"></path>		<path class="st2" d="M409.6,287.3h-3.2l-16.3-12.9v12.9h-4.3v-19.2h3.2l16.3,12.8v-12.8h4.2V287.3z"></path>	</g>	<line class="st3" x1="38.3" y1="257.9" x2="413.9" y2="257.9"></line></g></svg>